                        <svg class="_6aYwdjzDCvXK0bVJQOb MnxxlQlR1H0xJuMEE8Yr YIUegm7fh_CpJbivTu6B" aria-hidden="true" viewBox="0 0 32 32" fill="none" xmlns="http://www.w3.org/2000/svg">
                        <path d="M31.5211 19.8706C29.3839 28.442 20.7014 33.6585 12.128 31.521C3.55811 29.384 -1.65895 20.7021 0.479281 12.1312C2.61551 3.55876 11.2979 -1.65819 19.8688 0.478793C28.4418 2.61577 33.6583 11.2987 31.5211 19.8706Z" fill="#F7931A"></path>
                        <path d="M23.0552 13.7206C23.3737 11.5916 21.7525 10.4471 19.5358 9.68361L20.2549 6.79963L18.4992 6.36214L17.7991 9.17011C17.3376 9.05511 16.8635 8.94662 16.3924 8.83912L17.0975 6.01264L15.3428 5.57514L14.6233 8.45811C14.2412 8.37111 13.8662 8.28512 13.5021 8.19462L13.5041 8.18562L11.0829 7.58112L10.6158 9.4561C10.6158 9.4561 11.9185 9.7546 11.891 9.7731C12.602 9.95059 12.7306 10.4211 12.7091 10.7941L11.89 14.0796C11.939 14.0921 12.0025 14.1101 12.0725 14.1381C12.014 14.1236 11.9515 14.1076 11.887 14.0921L10.7388 18.6945C10.6518 18.9105 10.4313 19.2345 9.93427 19.1115C9.95177 19.137 8.65813 18.793 8.65813 18.793L7.78654 20.8025L10.0713 21.372C10.4963 21.4785 10.9129 21.59 11.3229 21.695L10.5963 24.612L12.35 25.0494L13.0696 22.1635C13.5486 22.2935 14.0137 22.4135 14.4687 22.5265L13.7517 25.3989L15.5074 25.8364L16.2339 22.925C19.2278 23.4915 21.479 23.263 22.4266 20.5555C23.1902 18.3755 22.3886 17.118 20.8134 16.298C21.9605 16.0335 22.8246 15.2791 23.0552 13.7206ZM19.0437 19.345C18.5012 21.525 14.8303 20.3465 13.6402 20.051L14.6043 16.1865C15.7944 16.4835 19.6108 17.0715 19.0437 19.345ZM19.5868 13.6891C19.0917 15.672 16.0364 14.6645 15.0453 14.4176L15.9194 10.9126C16.9105 11.1596 20.1023 11.6206 19.5868 13.6891Z" fill="white"></path>
                        </svg>